<svg xmlns="http://www.w3.org/2000/svg" xmlns:xlink="http://www.w3.org/1999/xlink" width="100" height="100" viewBox="0 0 100 100"><rect width="100%" height="100%" fill="#000000"></rect><g transform="translate(50 50) scale(0.69 0.69) rotate(0) translate(-50 -50)" style="fill:#34C8FF"><svg fill="#34C8FF" xmlns="http://www.w3.org/2000/svg" xmlns:xlink="http://www.w3.org/1999/xlink" version="1.1" x="0px" y="0px" viewBox="0 0 512 512" style="enable-background:new 0 0 512 512;" xml:space="preserve"><g><g><path d="M444.524,214.024L273.821,94.129c-5.247-3.686-11.409-5.635-17.821-5.635s-12.575,1.945-17.822,5.63L67.476,214.025    c-2.886,5.085-2.938,11.098-0.099,16.283c2.989,5.458,8.489,8.691,14.712,8.691H130c2.524,0,4.652,1.968,4.962,4.472l20,161.541    c0.025,0.203,0.038,0.534,0.038,0.739c0,9.924,8.075,18.248,18,18.248h167c9.925,0,18-8.33,18-18.255    c0-0.205,0.013-0.666,0.038-0.869l20-161.466c0.311-2.504,2.438-4.41,4.962-4.41h46.911c6.223,0,11.723-3.233,14.712-8.691    C447.463,225.123,447.41,219.109,444.524,214.024z M256,325c-30.327,0-55-24.673-55-55s24.673-55,55-55s55,24.673,55,55    S286.327,325,256,325z"></path><path d="M256,225c-24.813,0-45,20.187-45,45s20.187,45,45,45c24.813,0,45-20.187,45-45S280.813,225,256,225z"></path></g></g></svg></g></svg>